<mxfile host="app.diagrams.net" agent="Mozilla/5.0 (Windows NT 10.0; Win64; x64) AppleWebKit/537.36 (KHTML, like Gecko) Chrome/138.0.0.0 Safari/537.36" version="28.0.9">
  <diagram name="Page-1" id="6enx_Z1zjzP6rqG4j943">
    <mxGraphModel dx="1042" dy="1662" grid="1" gridSize="10" guides="1" tooltips="1" connect="1" arrows="1" fold="1" page="1" pageScale="1" pageWidth="850" pageHeight="1100" math="0" shadow="0">
      <root>
        <mxCell id="0" />
        <mxCell id="1" parent="0" />
        <mxCell id="Fugwg3KGDmoiKcPozE3w-1" value="&lt;h1&gt;&lt;font style=&quot;font-size: 29px;&quot;&gt;SALES DATA MART&lt;/font&gt;&lt;/h1&gt;" style="text;html=1;align=center;verticalAlign=middle;whiteSpace=wrap;rounded=0;" vertex="1" parent="1">
          <mxGeometry x="20" y="10" width="190" height="60" as="geometry" />
        </mxCell>
        <mxCell id="Fugwg3KGDmoiKcPozE3w-2" value="&lt;b&gt;&lt;font style=&quot;font-size: 14px;&quot;&gt;STAR SCHEMA&lt;/font&gt;&lt;/b&gt;" style="text;html=1;align=center;verticalAlign=middle;whiteSpace=wrap;rounded=0;" vertex="1" parent="1">
          <mxGeometry x="210" y="40" width="110" height="30" as="geometry" />
        </mxCell>
        <mxCell id="Fugwg3KGDmoiKcPozE3w-3" value="&lt;font style=&quot;font-size: 16px;&quot;&gt;gold.dim_customers&lt;/font&gt;" style="shape=table;startSize=30;container=1;collapsible=1;childLayout=tableLayout;fixedRows=1;rowLines=0;fontStyle=1;align=center;resizeLast=1;html=1;rounded=1;fillColor=#e51400;fontColor=#ffffff;strokeColor=#B20000;" vertex="1" parent="1">
          <mxGeometry x="120" y="109" width="180" height="402" as="geometry" />
        </mxCell>
        <mxCell id="Fugwg3KGDmoiKcPozE3w-4" value="" style="shape=tableRow;horizontal=0;startSize=0;swimlaneHead=0;swimlaneBody=0;fillColor=none;collapsible=0;dropTarget=0;points=[[0,0.5],[1,0.5]];portConstraint=eastwest;top=0;left=0;right=0;bottom=1;" vertex="1" parent="Fugwg3KGDmoiKcPozE3w-3">
          <mxGeometry y="30" width="180" height="30" as="geometry" />
        </mxCell>
        <mxCell id="Fugwg3KGDmoiKcPozE3w-5" value="PK" style="shape=partialRectangle;connectable=0;fillColor=none;top=0;left=0;bottom=0;right=0;fontStyle=1;overflow=hidden;whiteSpace=wrap;html=1;" vertex="1" parent="Fugwg3KGDmoiKcPozE3w-4">
          <mxGeometry width="30" height="30" as="geometry">
            <mxRectangle width="30" height="30" as="alternateBounds" />
          </mxGeometry>
        </mxCell>
        <mxCell id="Fugwg3KGDmoiKcPozE3w-6" value="customer_key" style="shape=partialRectangle;connectable=0;fillColor=none;top=0;left=0;bottom=0;right=0;align=left;spacingLeft=6;fontStyle=5;overflow=hidden;whiteSpace=wrap;html=1;" vertex="1" parent="Fugwg3KGDmoiKcPozE3w-4">
          <mxGeometry x="30" width="150" height="30" as="geometry">
            <mxRectangle width="150" height="30" as="alternateBounds" />
          </mxGeometry>
        </mxCell>
        <mxCell id="Fugwg3KGDmoiKcPozE3w-7" value="" style="shape=tableRow;horizontal=0;startSize=0;swimlaneHead=0;swimlaneBody=0;fillColor=none;collapsible=0;dropTarget=0;points=[[0,0.5],[1,0.5]];portConstraint=eastwest;top=0;left=0;right=0;bottom=0;" vertex="1" parent="Fugwg3KGDmoiKcPozE3w-3">
          <mxGeometry y="60" width="180" height="30" as="geometry" />
        </mxCell>
        <mxCell id="Fugwg3KGDmoiKcPozE3w-8" value="" style="shape=partialRectangle;connectable=0;fillColor=none;top=0;left=0;bottom=0;right=0;editable=1;overflow=hidden;whiteSpace=wrap;html=1;" vertex="1" parent="Fugwg3KGDmoiKcPozE3w-7">
          <mxGeometry width="30" height="30" as="geometry">
            <mxRectangle width="30" height="30" as="alternateBounds" />
          </mxGeometry>
        </mxCell>
        <mxCell id="Fugwg3KGDmoiKcPozE3w-9" value="customer_id" style="shape=partialRectangle;connectable=0;fillColor=none;top=0;left=0;bottom=0;right=0;align=left;spacingLeft=6;overflow=hidden;whiteSpace=wrap;html=1;" vertex="1" parent="Fugwg3KGDmoiKcPozE3w-7">
          <mxGeometry x="30" width="150" height="30" as="geometry">
            <mxRectangle width="150" height="30" as="alternateBounds" />
          </mxGeometry>
        </mxCell>
        <mxCell id="Fugwg3KGDmoiKcPozE3w-10" value="" style="shape=tableRow;horizontal=0;startSize=0;swimlaneHead=0;swimlaneBody=0;fillColor=none;collapsible=0;dropTarget=0;points=[[0,0.5],[1,0.5]];portConstraint=eastwest;top=0;left=0;right=0;bottom=0;" vertex="1" parent="Fugwg3KGDmoiKcPozE3w-3">
          <mxGeometry y="90" width="180" height="39" as="geometry" />
        </mxCell>
        <mxCell id="Fugwg3KGDmoiKcPozE3w-11" value="" style="shape=partialRectangle;connectable=0;fillColor=none;top=0;left=0;bottom=0;right=0;editable=1;overflow=hidden;whiteSpace=wrap;html=1;" vertex="1" parent="Fugwg3KGDmoiKcPozE3w-10">
          <mxGeometry width="30" height="39" as="geometry">
            <mxRectangle width="30" height="39" as="alternateBounds" />
          </mxGeometry>
        </mxCell>
        <mxCell id="Fugwg3KGDmoiKcPozE3w-12" value="customer_number" style="shape=partialRectangle;connectable=0;fillColor=none;top=0;left=0;bottom=0;right=0;align=left;spacingLeft=6;overflow=hidden;whiteSpace=wrap;html=1;" vertex="1" parent="Fugwg3KGDmoiKcPozE3w-10">
          <mxGeometry x="30" width="150" height="39" as="geometry">
            <mxRectangle width="150" height="39" as="alternateBounds" />
          </mxGeometry>
        </mxCell>
        <mxCell id="Fugwg3KGDmoiKcPozE3w-13" value="" style="shape=tableRow;horizontal=0;startSize=0;swimlaneHead=0;swimlaneBody=0;fillColor=none;collapsible=0;dropTarget=0;points=[[0,0.5],[1,0.5]];portConstraint=eastwest;top=0;left=0;right=0;bottom=0;" vertex="1" parent="Fugwg3KGDmoiKcPozE3w-3">
          <mxGeometry y="129" width="180" height="39" as="geometry" />
        </mxCell>
        <mxCell id="Fugwg3KGDmoiKcPozE3w-14" value="" style="shape=partialRectangle;connectable=0;fillColor=none;top=0;left=0;bottom=0;right=0;editable=1;overflow=hidden;whiteSpace=wrap;html=1;" vertex="1" parent="Fugwg3KGDmoiKcPozE3w-13">
          <mxGeometry width="30" height="39" as="geometry">
            <mxRectangle width="30" height="39" as="alternateBounds" />
          </mxGeometry>
        </mxCell>
        <mxCell id="Fugwg3KGDmoiKcPozE3w-15" value="first_name" style="shape=partialRectangle;connectable=0;fillColor=none;top=0;left=0;bottom=0;right=0;align=left;spacingLeft=6;overflow=hidden;whiteSpace=wrap;html=1;" vertex="1" parent="Fugwg3KGDmoiKcPozE3w-13">
          <mxGeometry x="30" width="150" height="39" as="geometry">
            <mxRectangle width="150" height="39" as="alternateBounds" />
          </mxGeometry>
        </mxCell>
        <mxCell id="Fugwg3KGDmoiKcPozE3w-16" value="" style="shape=tableRow;horizontal=0;startSize=0;swimlaneHead=0;swimlaneBody=0;fillColor=none;collapsible=0;dropTarget=0;points=[[0,0.5],[1,0.5]];portConstraint=eastwest;top=0;left=0;right=0;bottom=0;" vertex="1" parent="Fugwg3KGDmoiKcPozE3w-3">
          <mxGeometry y="168" width="180" height="39" as="geometry" />
        </mxCell>
        <mxCell id="Fugwg3KGDmoiKcPozE3w-17" value="" style="shape=partialRectangle;connectable=0;fillColor=none;top=0;left=0;bottom=0;right=0;editable=1;overflow=hidden;whiteSpace=wrap;html=1;" vertex="1" parent="Fugwg3KGDmoiKcPozE3w-16">
          <mxGeometry width="30" height="39" as="geometry">
            <mxRectangle width="30" height="39" as="alternateBounds" />
          </mxGeometry>
        </mxCell>
        <mxCell id="Fugwg3KGDmoiKcPozE3w-18" value="last_name" style="shape=partialRectangle;connectable=0;fillColor=none;top=0;left=0;bottom=0;right=0;align=left;spacingLeft=6;overflow=hidden;whiteSpace=wrap;html=1;" vertex="1" parent="Fugwg3KGDmoiKcPozE3w-16">
          <mxGeometry x="30" width="150" height="39" as="geometry">
            <mxRectangle width="150" height="39" as="alternateBounds" />
          </mxGeometry>
        </mxCell>
        <mxCell id="Fugwg3KGDmoiKcPozE3w-19" value="" style="shape=tableRow;horizontal=0;startSize=0;swimlaneHead=0;swimlaneBody=0;fillColor=none;collapsible=0;dropTarget=0;points=[[0,0.5],[1,0.5]];portConstraint=eastwest;top=0;left=0;right=0;bottom=0;" vertex="1" parent="Fugwg3KGDmoiKcPozE3w-3">
          <mxGeometry y="207" width="180" height="39" as="geometry" />
        </mxCell>
        <mxCell id="Fugwg3KGDmoiKcPozE3w-20" value="" style="shape=partialRectangle;connectable=0;fillColor=none;top=0;left=0;bottom=0;right=0;editable=1;overflow=hidden;whiteSpace=wrap;html=1;" vertex="1" parent="Fugwg3KGDmoiKcPozE3w-19">
          <mxGeometry width="30" height="39" as="geometry">
            <mxRectangle width="30" height="39" as="alternateBounds" />
          </mxGeometry>
        </mxCell>
        <mxCell id="Fugwg3KGDmoiKcPozE3w-21" value="country" style="shape=partialRectangle;connectable=0;fillColor=none;top=0;left=0;bottom=0;right=0;align=left;spacingLeft=6;overflow=hidden;whiteSpace=wrap;html=1;" vertex="1" parent="Fugwg3KGDmoiKcPozE3w-19">
          <mxGeometry x="30" width="150" height="39" as="geometry">
            <mxRectangle width="150" height="39" as="alternateBounds" />
          </mxGeometry>
        </mxCell>
        <mxCell id="Fugwg3KGDmoiKcPozE3w-22" value="" style="shape=tableRow;horizontal=0;startSize=0;swimlaneHead=0;swimlaneBody=0;fillColor=none;collapsible=0;dropTarget=0;points=[[0,0.5],[1,0.5]];portConstraint=eastwest;top=0;left=0;right=0;bottom=0;" vertex="1" parent="Fugwg3KGDmoiKcPozE3w-3">
          <mxGeometry y="246" width="180" height="39" as="geometry" />
        </mxCell>
        <mxCell id="Fugwg3KGDmoiKcPozE3w-23" value="" style="shape=partialRectangle;connectable=0;fillColor=none;top=0;left=0;bottom=0;right=0;editable=1;overflow=hidden;whiteSpace=wrap;html=1;" vertex="1" parent="Fugwg3KGDmoiKcPozE3w-22">
          <mxGeometry width="30" height="39" as="geometry">
            <mxRectangle width="30" height="39" as="alternateBounds" />
          </mxGeometry>
        </mxCell>
        <mxCell id="Fugwg3KGDmoiKcPozE3w-24" value="marital_status" style="shape=partialRectangle;connectable=0;fillColor=none;top=0;left=0;bottom=0;right=0;align=left;spacingLeft=6;overflow=hidden;whiteSpace=wrap;html=1;" vertex="1" parent="Fugwg3KGDmoiKcPozE3w-22">
          <mxGeometry x="30" width="150" height="39" as="geometry">
            <mxRectangle width="150" height="39" as="alternateBounds" />
          </mxGeometry>
        </mxCell>
        <mxCell id="Fugwg3KGDmoiKcPozE3w-25" value="" style="shape=tableRow;horizontal=0;startSize=0;swimlaneHead=0;swimlaneBody=0;fillColor=none;collapsible=0;dropTarget=0;points=[[0,0.5],[1,0.5]];portConstraint=eastwest;top=0;left=0;right=0;bottom=0;" vertex="1" parent="Fugwg3KGDmoiKcPozE3w-3">
          <mxGeometry y="285" width="180" height="39" as="geometry" />
        </mxCell>
        <mxCell id="Fugwg3KGDmoiKcPozE3w-26" value="" style="shape=partialRectangle;connectable=0;fillColor=none;top=0;left=0;bottom=0;right=0;editable=1;overflow=hidden;whiteSpace=wrap;html=1;" vertex="1" parent="Fugwg3KGDmoiKcPozE3w-25">
          <mxGeometry width="30" height="39" as="geometry">
            <mxRectangle width="30" height="39" as="alternateBounds" />
          </mxGeometry>
        </mxCell>
        <mxCell id="Fugwg3KGDmoiKcPozE3w-27" value="gender" style="shape=partialRectangle;connectable=0;fillColor=none;top=0;left=0;bottom=0;right=0;align=left;spacingLeft=6;overflow=hidden;whiteSpace=wrap;html=1;" vertex="1" parent="Fugwg3KGDmoiKcPozE3w-25">
          <mxGeometry x="30" width="150" height="39" as="geometry">
            <mxRectangle width="150" height="39" as="alternateBounds" />
          </mxGeometry>
        </mxCell>
        <mxCell id="Fugwg3KGDmoiKcPozE3w-28" value="" style="shape=tableRow;horizontal=0;startSize=0;swimlaneHead=0;swimlaneBody=0;fillColor=none;collapsible=0;dropTarget=0;points=[[0,0.5],[1,0.5]];portConstraint=eastwest;top=0;left=0;right=0;bottom=0;" vertex="1" parent="Fugwg3KGDmoiKcPozE3w-3">
          <mxGeometry y="324" width="180" height="39" as="geometry" />
        </mxCell>
        <mxCell id="Fugwg3KGDmoiKcPozE3w-29" value="" style="shape=partialRectangle;connectable=0;fillColor=none;top=0;left=0;bottom=0;right=0;editable=1;overflow=hidden;whiteSpace=wrap;html=1;" vertex="1" parent="Fugwg3KGDmoiKcPozE3w-28">
          <mxGeometry width="30" height="39" as="geometry">
            <mxRectangle width="30" height="39" as="alternateBounds" />
          </mxGeometry>
        </mxCell>
        <mxCell id="Fugwg3KGDmoiKcPozE3w-30" value="birthdate" style="shape=partialRectangle;connectable=0;fillColor=none;top=0;left=0;bottom=0;right=0;align=left;spacingLeft=6;overflow=hidden;whiteSpace=wrap;html=1;" vertex="1" parent="Fugwg3KGDmoiKcPozE3w-28">
          <mxGeometry x="30" width="150" height="39" as="geometry">
            <mxRectangle width="150" height="39" as="alternateBounds" />
          </mxGeometry>
        </mxCell>
        <mxCell id="Fugwg3KGDmoiKcPozE3w-31" value="" style="shape=tableRow;horizontal=0;startSize=0;swimlaneHead=0;swimlaneBody=0;fillColor=none;collapsible=0;dropTarget=0;points=[[0,0.5],[1,0.5]];portConstraint=eastwest;top=0;left=0;right=0;bottom=0;" vertex="1" parent="Fugwg3KGDmoiKcPozE3w-3">
          <mxGeometry y="363" width="180" height="39" as="geometry" />
        </mxCell>
        <mxCell id="Fugwg3KGDmoiKcPozE3w-32" value="" style="shape=partialRectangle;connectable=0;fillColor=none;top=0;left=0;bottom=0;right=0;editable=1;overflow=hidden;whiteSpace=wrap;html=1;" vertex="1" parent="Fugwg3KGDmoiKcPozE3w-31">
          <mxGeometry width="30" height="39" as="geometry">
            <mxRectangle width="30" height="39" as="alternateBounds" />
          </mxGeometry>
        </mxCell>
        <mxCell id="Fugwg3KGDmoiKcPozE3w-33" value="country" style="shape=partialRectangle;connectable=0;fillColor=none;top=0;left=0;bottom=0;right=0;align=left;spacingLeft=6;overflow=hidden;whiteSpace=wrap;html=1;" vertex="1" parent="Fugwg3KGDmoiKcPozE3w-31">
          <mxGeometry x="30" width="150" height="39" as="geometry">
            <mxRectangle width="150" height="39" as="alternateBounds" />
          </mxGeometry>
        </mxCell>
        <mxCell id="Fugwg3KGDmoiKcPozE3w-71" value="&lt;font style=&quot;font-size: 16px;&quot;&gt;gold.dim_products&lt;/font&gt;" style="shape=table;startSize=30;container=1;collapsible=1;childLayout=tableLayout;fixedRows=1;rowLines=0;fontStyle=1;align=center;resizeLast=1;html=1;rounded=1;fillColor=#e51400;fontColor=#ffffff;strokeColor=#B20000;" vertex="1" parent="1">
          <mxGeometry x="780" y="89.5" width="180" height="441" as="geometry" />
        </mxCell>
        <mxCell id="Fugwg3KGDmoiKcPozE3w-72" value="" style="shape=tableRow;horizontal=0;startSize=0;swimlaneHead=0;swimlaneBody=0;fillColor=none;collapsible=0;dropTarget=0;points=[[0,0.5],[1,0.5]];portConstraint=eastwest;top=0;left=0;right=0;bottom=1;" vertex="1" parent="Fugwg3KGDmoiKcPozE3w-71">
          <mxGeometry y="30" width="180" height="30" as="geometry" />
        </mxCell>
        <mxCell id="Fugwg3KGDmoiKcPozE3w-73" value="PK" style="shape=partialRectangle;connectable=0;fillColor=none;top=0;left=0;bottom=0;right=0;fontStyle=1;overflow=hidden;whiteSpace=wrap;html=1;" vertex="1" parent="Fugwg3KGDmoiKcPozE3w-72">
          <mxGeometry width="30" height="30" as="geometry">
            <mxRectangle width="30" height="30" as="alternateBounds" />
          </mxGeometry>
        </mxCell>
        <mxCell id="Fugwg3KGDmoiKcPozE3w-74" value="product_key" style="shape=partialRectangle;connectable=0;fillColor=none;top=0;left=0;bottom=0;right=0;align=left;spacingLeft=6;fontStyle=5;overflow=hidden;whiteSpace=wrap;html=1;" vertex="1" parent="Fugwg3KGDmoiKcPozE3w-72">
          <mxGeometry x="30" width="150" height="30" as="geometry">
            <mxRectangle width="150" height="30" as="alternateBounds" />
          </mxGeometry>
        </mxCell>
        <mxCell id="Fugwg3KGDmoiKcPozE3w-75" value="" style="shape=tableRow;horizontal=0;startSize=0;swimlaneHead=0;swimlaneBody=0;fillColor=none;collapsible=0;dropTarget=0;points=[[0,0.5],[1,0.5]];portConstraint=eastwest;top=0;left=0;right=0;bottom=0;" vertex="1" parent="Fugwg3KGDmoiKcPozE3w-71">
          <mxGeometry y="60" width="180" height="30" as="geometry" />
        </mxCell>
        <mxCell id="Fugwg3KGDmoiKcPozE3w-76" value="" style="shape=partialRectangle;connectable=0;fillColor=none;top=0;left=0;bottom=0;right=0;editable=1;overflow=hidden;whiteSpace=wrap;html=1;" vertex="1" parent="Fugwg3KGDmoiKcPozE3w-75">
          <mxGeometry width="30" height="30" as="geometry">
            <mxRectangle width="30" height="30" as="alternateBounds" />
          </mxGeometry>
        </mxCell>
        <mxCell id="Fugwg3KGDmoiKcPozE3w-77" value="product_id" style="shape=partialRectangle;connectable=0;fillColor=none;top=0;left=0;bottom=0;right=0;align=left;spacingLeft=6;overflow=hidden;whiteSpace=wrap;html=1;" vertex="1" parent="Fugwg3KGDmoiKcPozE3w-75">
          <mxGeometry x="30" width="150" height="30" as="geometry">
            <mxRectangle width="150" height="30" as="alternateBounds" />
          </mxGeometry>
        </mxCell>
        <mxCell id="Fugwg3KGDmoiKcPozE3w-78" value="" style="shape=tableRow;horizontal=0;startSize=0;swimlaneHead=0;swimlaneBody=0;fillColor=none;collapsible=0;dropTarget=0;points=[[0,0.5],[1,0.5]];portConstraint=eastwest;top=0;left=0;right=0;bottom=0;" vertex="1" parent="Fugwg3KGDmoiKcPozE3w-71">
          <mxGeometry y="90" width="180" height="39" as="geometry" />
        </mxCell>
        <mxCell id="Fugwg3KGDmoiKcPozE3w-79" value="" style="shape=partialRectangle;connectable=0;fillColor=none;top=0;left=0;bottom=0;right=0;editable=1;overflow=hidden;whiteSpace=wrap;html=1;" vertex="1" parent="Fugwg3KGDmoiKcPozE3w-78">
          <mxGeometry width="30" height="39" as="geometry">
            <mxRectangle width="30" height="39" as="alternateBounds" />
          </mxGeometry>
        </mxCell>
        <mxCell id="Fugwg3KGDmoiKcPozE3w-80" value="product_number" style="shape=partialRectangle;connectable=0;fillColor=none;top=0;left=0;bottom=0;right=0;align=left;spacingLeft=6;overflow=hidden;whiteSpace=wrap;html=1;" vertex="1" parent="Fugwg3KGDmoiKcPozE3w-78">
          <mxGeometry x="30" width="150" height="39" as="geometry">
            <mxRectangle width="150" height="39" as="alternateBounds" />
          </mxGeometry>
        </mxCell>
        <mxCell id="Fugwg3KGDmoiKcPozE3w-81" value="" style="shape=tableRow;horizontal=0;startSize=0;swimlaneHead=0;swimlaneBody=0;fillColor=none;collapsible=0;dropTarget=0;points=[[0,0.5],[1,0.5]];portConstraint=eastwest;top=0;left=0;right=0;bottom=0;" vertex="1" parent="Fugwg3KGDmoiKcPozE3w-71">
          <mxGeometry y="129" width="180" height="39" as="geometry" />
        </mxCell>
        <mxCell id="Fugwg3KGDmoiKcPozE3w-82" value="" style="shape=partialRectangle;connectable=0;fillColor=none;top=0;left=0;bottom=0;right=0;editable=1;overflow=hidden;whiteSpace=wrap;html=1;" vertex="1" parent="Fugwg3KGDmoiKcPozE3w-81">
          <mxGeometry width="30" height="39" as="geometry">
            <mxRectangle width="30" height="39" as="alternateBounds" />
          </mxGeometry>
        </mxCell>
        <mxCell id="Fugwg3KGDmoiKcPozE3w-83" value="product_name" style="shape=partialRectangle;connectable=0;fillColor=none;top=0;left=0;bottom=0;right=0;align=left;spacingLeft=6;overflow=hidden;whiteSpace=wrap;html=1;" vertex="1" parent="Fugwg3KGDmoiKcPozE3w-81">
          <mxGeometry x="30" width="150" height="39" as="geometry">
            <mxRectangle width="150" height="39" as="alternateBounds" />
          </mxGeometry>
        </mxCell>
        <mxCell id="Fugwg3KGDmoiKcPozE3w-84" value="" style="shape=tableRow;horizontal=0;startSize=0;swimlaneHead=0;swimlaneBody=0;fillColor=none;collapsible=0;dropTarget=0;points=[[0,0.5],[1,0.5]];portConstraint=eastwest;top=0;left=0;right=0;bottom=0;" vertex="1" parent="Fugwg3KGDmoiKcPozE3w-71">
          <mxGeometry y="168" width="180" height="39" as="geometry" />
        </mxCell>
        <mxCell id="Fugwg3KGDmoiKcPozE3w-85" value="" style="shape=partialRectangle;connectable=0;fillColor=none;top=0;left=0;bottom=0;right=0;editable=1;overflow=hidden;whiteSpace=wrap;html=1;" vertex="1" parent="Fugwg3KGDmoiKcPozE3w-84">
          <mxGeometry width="30" height="39" as="geometry">
            <mxRectangle width="30" height="39" as="alternateBounds" />
          </mxGeometry>
        </mxCell>
        <mxCell id="Fugwg3KGDmoiKcPozE3w-86" value="category_id" style="shape=partialRectangle;connectable=0;fillColor=none;top=0;left=0;bottom=0;right=0;align=left;spacingLeft=6;overflow=hidden;whiteSpace=wrap;html=1;" vertex="1" parent="Fugwg3KGDmoiKcPozE3w-84">
          <mxGeometry x="30" width="150" height="39" as="geometry">
            <mxRectangle width="150" height="39" as="alternateBounds" />
          </mxGeometry>
        </mxCell>
        <mxCell id="Fugwg3KGDmoiKcPozE3w-87" value="" style="shape=tableRow;horizontal=0;startSize=0;swimlaneHead=0;swimlaneBody=0;fillColor=none;collapsible=0;dropTarget=0;points=[[0,0.5],[1,0.5]];portConstraint=eastwest;top=0;left=0;right=0;bottom=0;" vertex="1" parent="Fugwg3KGDmoiKcPozE3w-71">
          <mxGeometry y="207" width="180" height="39" as="geometry" />
        </mxCell>
        <mxCell id="Fugwg3KGDmoiKcPozE3w-88" value="" style="shape=partialRectangle;connectable=0;fillColor=none;top=0;left=0;bottom=0;right=0;editable=1;overflow=hidden;whiteSpace=wrap;html=1;" vertex="1" parent="Fugwg3KGDmoiKcPozE3w-87">
          <mxGeometry width="30" height="39" as="geometry">
            <mxRectangle width="30" height="39" as="alternateBounds" />
          </mxGeometry>
        </mxCell>
        <mxCell id="Fugwg3KGDmoiKcPozE3w-89" value="category" style="shape=partialRectangle;connectable=0;fillColor=none;top=0;left=0;bottom=0;right=0;align=left;spacingLeft=6;overflow=hidden;whiteSpace=wrap;html=1;" vertex="1" parent="Fugwg3KGDmoiKcPozE3w-87">
          <mxGeometry x="30" width="150" height="39" as="geometry">
            <mxRectangle width="150" height="39" as="alternateBounds" />
          </mxGeometry>
        </mxCell>
        <mxCell id="Fugwg3KGDmoiKcPozE3w-90" value="" style="shape=tableRow;horizontal=0;startSize=0;swimlaneHead=0;swimlaneBody=0;fillColor=none;collapsible=0;dropTarget=0;points=[[0,0.5],[1,0.5]];portConstraint=eastwest;top=0;left=0;right=0;bottom=0;" vertex="1" parent="Fugwg3KGDmoiKcPozE3w-71">
          <mxGeometry y="246" width="180" height="39" as="geometry" />
        </mxCell>
        <mxCell id="Fugwg3KGDmoiKcPozE3w-91" value="" style="shape=partialRectangle;connectable=0;fillColor=none;top=0;left=0;bottom=0;right=0;editable=1;overflow=hidden;whiteSpace=wrap;html=1;" vertex="1" parent="Fugwg3KGDmoiKcPozE3w-90">
          <mxGeometry width="30" height="39" as="geometry">
            <mxRectangle width="30" height="39" as="alternateBounds" />
          </mxGeometry>
        </mxCell>
        <mxCell id="Fugwg3KGDmoiKcPozE3w-92" value="subcategory" style="shape=partialRectangle;connectable=0;fillColor=none;top=0;left=0;bottom=0;right=0;align=left;spacingLeft=6;overflow=hidden;whiteSpace=wrap;html=1;" vertex="1" parent="Fugwg3KGDmoiKcPozE3w-90">
          <mxGeometry x="30" width="150" height="39" as="geometry">
            <mxRectangle width="150" height="39" as="alternateBounds" />
          </mxGeometry>
        </mxCell>
        <mxCell id="Fugwg3KGDmoiKcPozE3w-93" value="" style="shape=tableRow;horizontal=0;startSize=0;swimlaneHead=0;swimlaneBody=0;fillColor=none;collapsible=0;dropTarget=0;points=[[0,0.5],[1,0.5]];portConstraint=eastwest;top=0;left=0;right=0;bottom=0;" vertex="1" parent="Fugwg3KGDmoiKcPozE3w-71">
          <mxGeometry y="285" width="180" height="39" as="geometry" />
        </mxCell>
        <mxCell id="Fugwg3KGDmoiKcPozE3w-94" value="" style="shape=partialRectangle;connectable=0;fillColor=none;top=0;left=0;bottom=0;right=0;editable=1;overflow=hidden;whiteSpace=wrap;html=1;" vertex="1" parent="Fugwg3KGDmoiKcPozE3w-93">
          <mxGeometry width="30" height="39" as="geometry">
            <mxRectangle width="30" height="39" as="alternateBounds" />
          </mxGeometry>
        </mxCell>
        <mxCell id="Fugwg3KGDmoiKcPozE3w-95" value="maintenance" style="shape=partialRectangle;connectable=0;fillColor=none;top=0;left=0;bottom=0;right=0;align=left;spacingLeft=6;overflow=hidden;whiteSpace=wrap;html=1;" vertex="1" parent="Fugwg3KGDmoiKcPozE3w-93">
          <mxGeometry x="30" width="150" height="39" as="geometry">
            <mxRectangle width="150" height="39" as="alternateBounds" />
          </mxGeometry>
        </mxCell>
        <mxCell id="Fugwg3KGDmoiKcPozE3w-96" value="" style="shape=tableRow;horizontal=0;startSize=0;swimlaneHead=0;swimlaneBody=0;fillColor=none;collapsible=0;dropTarget=0;points=[[0,0.5],[1,0.5]];portConstraint=eastwest;top=0;left=0;right=0;bottom=0;" vertex="1" parent="Fugwg3KGDmoiKcPozE3w-71">
          <mxGeometry y="324" width="180" height="39" as="geometry" />
        </mxCell>
        <mxCell id="Fugwg3KGDmoiKcPozE3w-97" value="" style="shape=partialRectangle;connectable=0;fillColor=none;top=0;left=0;bottom=0;right=0;editable=1;overflow=hidden;whiteSpace=wrap;html=1;" vertex="1" parent="Fugwg3KGDmoiKcPozE3w-96">
          <mxGeometry width="30" height="39" as="geometry">
            <mxRectangle width="30" height="39" as="alternateBounds" />
          </mxGeometry>
        </mxCell>
        <mxCell id="Fugwg3KGDmoiKcPozE3w-98" value="cost" style="shape=partialRectangle;connectable=0;fillColor=none;top=0;left=0;bottom=0;right=0;align=left;spacingLeft=6;overflow=hidden;whiteSpace=wrap;html=1;" vertex="1" parent="Fugwg3KGDmoiKcPozE3w-96">
          <mxGeometry x="30" width="150" height="39" as="geometry">
            <mxRectangle width="150" height="39" as="alternateBounds" />
          </mxGeometry>
        </mxCell>
        <mxCell id="Fugwg3KGDmoiKcPozE3w-99" value="" style="shape=tableRow;horizontal=0;startSize=0;swimlaneHead=0;swimlaneBody=0;fillColor=none;collapsible=0;dropTarget=0;points=[[0,0.5],[1,0.5]];portConstraint=eastwest;top=0;left=0;right=0;bottom=0;" vertex="1" parent="Fugwg3KGDmoiKcPozE3w-71">
          <mxGeometry y="363" width="180" height="39" as="geometry" />
        </mxCell>
        <mxCell id="Fugwg3KGDmoiKcPozE3w-100" value="" style="shape=partialRectangle;connectable=0;fillColor=none;top=0;left=0;bottom=0;right=0;editable=1;overflow=hidden;whiteSpace=wrap;html=1;" vertex="1" parent="Fugwg3KGDmoiKcPozE3w-99">
          <mxGeometry width="30" height="39" as="geometry">
            <mxRectangle width="30" height="39" as="alternateBounds" />
          </mxGeometry>
        </mxCell>
        <mxCell id="Fugwg3KGDmoiKcPozE3w-101" value="product_line" style="shape=partialRectangle;connectable=0;fillColor=none;top=0;left=0;bottom=0;right=0;align=left;spacingLeft=6;overflow=hidden;whiteSpace=wrap;html=1;" vertex="1" parent="Fugwg3KGDmoiKcPozE3w-99">
          <mxGeometry x="30" width="150" height="39" as="geometry">
            <mxRectangle width="150" height="39" as="alternateBounds" />
          </mxGeometry>
        </mxCell>
        <mxCell id="Fugwg3KGDmoiKcPozE3w-102" value="" style="shape=tableRow;horizontal=0;startSize=0;swimlaneHead=0;swimlaneBody=0;fillColor=none;collapsible=0;dropTarget=0;points=[[0,0.5],[1,0.5]];portConstraint=eastwest;top=0;left=0;right=0;bottom=0;" vertex="1" parent="Fugwg3KGDmoiKcPozE3w-71">
          <mxGeometry y="402" width="180" height="39" as="geometry" />
        </mxCell>
        <mxCell id="Fugwg3KGDmoiKcPozE3w-103" value="" style="shape=partialRectangle;connectable=0;fillColor=none;top=0;left=0;bottom=0;right=0;editable=1;overflow=hidden;whiteSpace=wrap;html=1;" vertex="1" parent="Fugwg3KGDmoiKcPozE3w-102">
          <mxGeometry width="30" height="39" as="geometry">
            <mxRectangle width="30" height="39" as="alternateBounds" />
          </mxGeometry>
        </mxCell>
        <mxCell id="Fugwg3KGDmoiKcPozE3w-104" value="start_date" style="shape=partialRectangle;connectable=0;fillColor=none;top=0;left=0;bottom=0;right=0;align=left;spacingLeft=6;overflow=hidden;whiteSpace=wrap;html=1;" vertex="1" parent="Fugwg3KGDmoiKcPozE3w-102">
          <mxGeometry x="30" width="150" height="39" as="geometry">
            <mxRectangle width="150" height="39" as="alternateBounds" />
          </mxGeometry>
        </mxCell>
        <mxCell id="Fugwg3KGDmoiKcPozE3w-105" value="&lt;span style=&quot;font-size: 16px;&quot;&gt;gold.fact_sales&lt;/span&gt;" style="shape=table;startSize=30;container=1;collapsible=1;childLayout=tableLayout;fixedRows=1;rowLines=0;fontStyle=1;align=center;resizeLast=1;html=1;rounded=1;fillColor=#6d8764;fontColor=#ffffff;strokeColor=#3A5431;" vertex="1" parent="1">
          <mxGeometry x="410" y="100" width="180" height="372" as="geometry" />
        </mxCell>
        <mxCell id="Fugwg3KGDmoiKcPozE3w-109" value="" style="shape=tableRow;horizontal=0;startSize=0;swimlaneHead=0;swimlaneBody=0;fillColor=none;collapsible=0;dropTarget=0;points=[[0,0.5],[1,0.5]];portConstraint=eastwest;top=0;left=0;right=0;bottom=0;" vertex="1" parent="Fugwg3KGDmoiKcPozE3w-105">
          <mxGeometry y="30" width="180" height="30" as="geometry" />
        </mxCell>
        <mxCell id="Fugwg3KGDmoiKcPozE3w-110" value="" style="shape=partialRectangle;connectable=0;fillColor=none;top=0;left=0;bottom=0;right=0;editable=1;overflow=hidden;whiteSpace=wrap;html=1;" vertex="1" parent="Fugwg3KGDmoiKcPozE3w-109">
          <mxGeometry width="30" height="30" as="geometry">
            <mxRectangle width="30" height="30" as="alternateBounds" />
          </mxGeometry>
        </mxCell>
        <mxCell id="Fugwg3KGDmoiKcPozE3w-111" value="order_number" style="shape=partialRectangle;connectable=0;fillColor=none;top=0;left=0;bottom=0;right=0;align=left;spacingLeft=6;overflow=hidden;whiteSpace=wrap;html=1;" vertex="1" parent="Fugwg3KGDmoiKcPozE3w-109">
          <mxGeometry x="30" width="150" height="30" as="geometry">
            <mxRectangle width="150" height="30" as="alternateBounds" />
          </mxGeometry>
        </mxCell>
        <mxCell id="Fugwg3KGDmoiKcPozE3w-112" value="" style="shape=tableRow;horizontal=0;startSize=0;swimlaneHead=0;swimlaneBody=0;fillColor=none;collapsible=0;dropTarget=0;points=[[0,0.5],[1,0.5]];portConstraint=eastwest;top=0;left=0;right=0;bottom=0;" vertex="1" parent="Fugwg3KGDmoiKcPozE3w-105">
          <mxGeometry y="60" width="180" height="39" as="geometry" />
        </mxCell>
        <mxCell id="Fugwg3KGDmoiKcPozE3w-113" value="FK1" style="shape=partialRectangle;connectable=0;fillColor=none;top=0;left=0;bottom=0;right=0;editable=1;overflow=hidden;whiteSpace=wrap;html=1;" vertex="1" parent="Fugwg3KGDmoiKcPozE3w-112">
          <mxGeometry width="30" height="39" as="geometry">
            <mxRectangle width="30" height="39" as="alternateBounds" />
          </mxGeometry>
        </mxCell>
        <mxCell id="Fugwg3KGDmoiKcPozE3w-114" value="product_key" style="shape=partialRectangle;connectable=0;fillColor=none;top=0;left=0;bottom=0;right=0;align=left;spacingLeft=6;overflow=hidden;whiteSpace=wrap;html=1;" vertex="1" parent="Fugwg3KGDmoiKcPozE3w-112">
          <mxGeometry x="30" width="150" height="39" as="geometry">
            <mxRectangle width="150" height="39" as="alternateBounds" />
          </mxGeometry>
        </mxCell>
        <mxCell id="Fugwg3KGDmoiKcPozE3w-115" value="" style="shape=tableRow;horizontal=0;startSize=0;swimlaneHead=0;swimlaneBody=0;fillColor=none;collapsible=0;dropTarget=0;points=[[0,0.5],[1,0.5]];portConstraint=eastwest;top=0;left=0;right=0;bottom=0;" vertex="1" parent="Fugwg3KGDmoiKcPozE3w-105">
          <mxGeometry y="99" width="180" height="39" as="geometry" />
        </mxCell>
        <mxCell id="Fugwg3KGDmoiKcPozE3w-116" value="FK2" style="shape=partialRectangle;connectable=0;fillColor=none;top=0;left=0;bottom=0;right=0;editable=1;overflow=hidden;whiteSpace=wrap;html=1;" vertex="1" parent="Fugwg3KGDmoiKcPozE3w-115">
          <mxGeometry width="30" height="39" as="geometry">
            <mxRectangle width="30" height="39" as="alternateBounds" />
          </mxGeometry>
        </mxCell>
        <mxCell id="Fugwg3KGDmoiKcPozE3w-117" value="customer_key" style="shape=partialRectangle;connectable=0;fillColor=none;top=0;left=0;bottom=0;right=0;align=left;spacingLeft=6;overflow=hidden;whiteSpace=wrap;html=1;" vertex="1" parent="Fugwg3KGDmoiKcPozE3w-115">
          <mxGeometry x="30" width="150" height="39" as="geometry">
            <mxRectangle width="150" height="39" as="alternateBounds" />
          </mxGeometry>
        </mxCell>
        <mxCell id="Fugwg3KGDmoiKcPozE3w-118" value="" style="shape=tableRow;horizontal=0;startSize=0;swimlaneHead=0;swimlaneBody=0;fillColor=none;collapsible=0;dropTarget=0;points=[[0,0.5],[1,0.5]];portConstraint=eastwest;top=0;left=0;right=0;bottom=0;" vertex="1" parent="Fugwg3KGDmoiKcPozE3w-105">
          <mxGeometry y="138" width="180" height="39" as="geometry" />
        </mxCell>
        <mxCell id="Fugwg3KGDmoiKcPozE3w-119" value="" style="shape=partialRectangle;connectable=0;fillColor=none;top=0;left=0;bottom=0;right=0;editable=1;overflow=hidden;whiteSpace=wrap;html=1;" vertex="1" parent="Fugwg3KGDmoiKcPozE3w-118">
          <mxGeometry width="30" height="39" as="geometry">
            <mxRectangle width="30" height="39" as="alternateBounds" />
          </mxGeometry>
        </mxCell>
        <mxCell id="Fugwg3KGDmoiKcPozE3w-120" value="order_date" style="shape=partialRectangle;connectable=0;fillColor=none;top=0;left=0;bottom=0;right=0;align=left;spacingLeft=6;overflow=hidden;whiteSpace=wrap;html=1;" vertex="1" parent="Fugwg3KGDmoiKcPozE3w-118">
          <mxGeometry x="30" width="150" height="39" as="geometry">
            <mxRectangle width="150" height="39" as="alternateBounds" />
          </mxGeometry>
        </mxCell>
        <mxCell id="Fugwg3KGDmoiKcPozE3w-121" value="" style="shape=tableRow;horizontal=0;startSize=0;swimlaneHead=0;swimlaneBody=0;fillColor=none;collapsible=0;dropTarget=0;points=[[0,0.5],[1,0.5]];portConstraint=eastwest;top=0;left=0;right=0;bottom=0;" vertex="1" parent="Fugwg3KGDmoiKcPozE3w-105">
          <mxGeometry y="177" width="180" height="39" as="geometry" />
        </mxCell>
        <mxCell id="Fugwg3KGDmoiKcPozE3w-122" value="" style="shape=partialRectangle;connectable=0;fillColor=none;top=0;left=0;bottom=0;right=0;editable=1;overflow=hidden;whiteSpace=wrap;html=1;" vertex="1" parent="Fugwg3KGDmoiKcPozE3w-121">
          <mxGeometry width="30" height="39" as="geometry">
            <mxRectangle width="30" height="39" as="alternateBounds" />
          </mxGeometry>
        </mxCell>
        <mxCell id="Fugwg3KGDmoiKcPozE3w-123" value="shipping_date" style="shape=partialRectangle;connectable=0;fillColor=none;top=0;left=0;bottom=0;right=0;align=left;spacingLeft=6;overflow=hidden;whiteSpace=wrap;html=1;" vertex="1" parent="Fugwg3KGDmoiKcPozE3w-121">
          <mxGeometry x="30" width="150" height="39" as="geometry">
            <mxRectangle width="150" height="39" as="alternateBounds" />
          </mxGeometry>
        </mxCell>
        <mxCell id="Fugwg3KGDmoiKcPozE3w-124" value="" style="shape=tableRow;horizontal=0;startSize=0;swimlaneHead=0;swimlaneBody=0;fillColor=none;collapsible=0;dropTarget=0;points=[[0,0.5],[1,0.5]];portConstraint=eastwest;top=0;left=0;right=0;bottom=0;" vertex="1" parent="Fugwg3KGDmoiKcPozE3w-105">
          <mxGeometry y="216" width="180" height="39" as="geometry" />
        </mxCell>
        <mxCell id="Fugwg3KGDmoiKcPozE3w-125" value="" style="shape=partialRectangle;connectable=0;fillColor=none;top=0;left=0;bottom=0;right=0;editable=1;overflow=hidden;whiteSpace=wrap;html=1;" vertex="1" parent="Fugwg3KGDmoiKcPozE3w-124">
          <mxGeometry width="30" height="39" as="geometry">
            <mxRectangle width="30" height="39" as="alternateBounds" />
          </mxGeometry>
        </mxCell>
        <mxCell id="Fugwg3KGDmoiKcPozE3w-126" value="due_date" style="shape=partialRectangle;connectable=0;fillColor=none;top=0;left=0;bottom=0;right=0;align=left;spacingLeft=6;overflow=hidden;whiteSpace=wrap;html=1;" vertex="1" parent="Fugwg3KGDmoiKcPozE3w-124">
          <mxGeometry x="30" width="150" height="39" as="geometry">
            <mxRectangle width="150" height="39" as="alternateBounds" />
          </mxGeometry>
        </mxCell>
        <mxCell id="Fugwg3KGDmoiKcPozE3w-127" value="" style="shape=tableRow;horizontal=0;startSize=0;swimlaneHead=0;swimlaneBody=0;fillColor=none;collapsible=0;dropTarget=0;points=[[0,0.5],[1,0.5]];portConstraint=eastwest;top=0;left=0;right=0;bottom=0;" vertex="1" parent="Fugwg3KGDmoiKcPozE3w-105">
          <mxGeometry y="255" width="180" height="39" as="geometry" />
        </mxCell>
        <mxCell id="Fugwg3KGDmoiKcPozE3w-128" value="" style="shape=partialRectangle;connectable=0;fillColor=none;top=0;left=0;bottom=0;right=0;editable=1;overflow=hidden;whiteSpace=wrap;html=1;" vertex="1" parent="Fugwg3KGDmoiKcPozE3w-127">
          <mxGeometry width="30" height="39" as="geometry">
            <mxRectangle width="30" height="39" as="alternateBounds" />
          </mxGeometry>
        </mxCell>
        <mxCell id="Fugwg3KGDmoiKcPozE3w-129" value="sales_amount" style="shape=partialRectangle;connectable=0;fillColor=none;top=0;left=0;bottom=0;right=0;align=left;spacingLeft=6;overflow=hidden;whiteSpace=wrap;html=1;" vertex="1" parent="Fugwg3KGDmoiKcPozE3w-127">
          <mxGeometry x="30" width="150" height="39" as="geometry">
            <mxRectangle width="150" height="39" as="alternateBounds" />
          </mxGeometry>
        </mxCell>
        <mxCell id="Fugwg3KGDmoiKcPozE3w-130" value="" style="shape=tableRow;horizontal=0;startSize=0;swimlaneHead=0;swimlaneBody=0;fillColor=none;collapsible=0;dropTarget=0;points=[[0,0.5],[1,0.5]];portConstraint=eastwest;top=0;left=0;right=0;bottom=0;" vertex="1" parent="Fugwg3KGDmoiKcPozE3w-105">
          <mxGeometry y="294" width="180" height="39" as="geometry" />
        </mxCell>
        <mxCell id="Fugwg3KGDmoiKcPozE3w-131" value="" style="shape=partialRectangle;connectable=0;fillColor=none;top=0;left=0;bottom=0;right=0;editable=1;overflow=hidden;whiteSpace=wrap;html=1;" vertex="1" parent="Fugwg3KGDmoiKcPozE3w-130">
          <mxGeometry width="30" height="39" as="geometry">
            <mxRectangle width="30" height="39" as="alternateBounds" />
          </mxGeometry>
        </mxCell>
        <mxCell id="Fugwg3KGDmoiKcPozE3w-132" value="quantity" style="shape=partialRectangle;connectable=0;fillColor=none;top=0;left=0;bottom=0;right=0;align=left;spacingLeft=6;overflow=hidden;whiteSpace=wrap;html=1;" vertex="1" parent="Fugwg3KGDmoiKcPozE3w-130">
          <mxGeometry x="30" width="150" height="39" as="geometry">
            <mxRectangle width="150" height="39" as="alternateBounds" />
          </mxGeometry>
        </mxCell>
        <mxCell id="Fugwg3KGDmoiKcPozE3w-133" value="" style="shape=tableRow;horizontal=0;startSize=0;swimlaneHead=0;swimlaneBody=0;fillColor=none;collapsible=0;dropTarget=0;points=[[0,0.5],[1,0.5]];portConstraint=eastwest;top=0;left=0;right=0;bottom=0;" vertex="1" parent="Fugwg3KGDmoiKcPozE3w-105">
          <mxGeometry y="333" width="180" height="39" as="geometry" />
        </mxCell>
        <mxCell id="Fugwg3KGDmoiKcPozE3w-134" value="" style="shape=partialRectangle;connectable=0;fillColor=none;top=0;left=0;bottom=0;right=0;editable=1;overflow=hidden;whiteSpace=wrap;html=1;" vertex="1" parent="Fugwg3KGDmoiKcPozE3w-133">
          <mxGeometry width="30" height="39" as="geometry">
            <mxRectangle width="30" height="39" as="alternateBounds" />
          </mxGeometry>
        </mxCell>
        <mxCell id="Fugwg3KGDmoiKcPozE3w-135" value="price" style="shape=partialRectangle;connectable=0;fillColor=none;top=0;left=0;bottom=0;right=0;align=left;spacingLeft=6;overflow=hidden;whiteSpace=wrap;html=1;" vertex="1" parent="Fugwg3KGDmoiKcPozE3w-133">
          <mxGeometry x="30" width="150" height="39" as="geometry">
            <mxRectangle width="150" height="39" as="alternateBounds" />
          </mxGeometry>
        </mxCell>
        <mxCell id="Fugwg3KGDmoiKcPozE3w-141" value="" style="edgeStyle=entityRelationEdgeStyle;fontSize=12;html=1;endArrow=ERzeroToMany;startArrow=ERmandOne;rounded=0;" edge="1" parent="1">
          <mxGeometry width="100" height="100" relative="1" as="geometry">
            <mxPoint x="300" y="160" as="sourcePoint" />
            <mxPoint x="400" y="220" as="targetPoint" />
          </mxGeometry>
        </mxCell>
        <mxCell id="Fugwg3KGDmoiKcPozE3w-142" value="" style="edgeStyle=entityRelationEdgeStyle;fontSize=12;html=1;endArrow=ERzeroToMany;startArrow=ERmandOne;rounded=0;entryX=1;entryY=0.5;entryDx=0;entryDy=0;exitX=0;exitY=0.5;exitDx=0;exitDy=0;" edge="1" parent="1" source="Fugwg3KGDmoiKcPozE3w-72" target="Fugwg3KGDmoiKcPozE3w-112">
          <mxGeometry width="100" height="100" relative="1" as="geometry">
            <mxPoint x="700" y="100" as="sourcePoint" />
            <mxPoint x="720" y="190" as="targetPoint" />
          </mxGeometry>
        </mxCell>
      </root>
    </mxGraphModel>
  </diagram>
</mxfile>
